<?xml version="1.0" encoding="utf-8"?>
<!-- Generator: Adobe Illustrator 23.0.1, SVG Export Plug-In . SVG Version: 6.00 Build 0)  -->
<svg version="1.1" id="图层_1" xmlns="http://www.w3.org/2000/svg" xmlns:xlink="http://www.w3.org/1999/xlink" x="0px" y="0px"
	 viewBox="0 0 100 100" style="enable-background:new 0 0 100 100;" xml:space="preserve">
<g>
	<path style="fill:none;" d="M45.2,45.2c0.4,1.5,0.6,3.2,0.6,4.8s-0.2,3.3-0.6,4.8c1.5-0.4,3.2-0.6,4.8-0.6s3.3,0.2,4.8,0.6
		c-0.4-1.5-0.6-3.2-0.6-4.8s0.2-3.3,0.6-4.8c-1.5,0.4-3.2,0.6-4.8,0.6S46.7,45.6,45.2,45.2z"/>
	<path style="fill:#7BBDF7;" d="M45.2,45.2c1.5,0.4,3.2,0.6,4.8,0.6s3.3-0.2,4.8-0.6c1.8-7.4,7.6-13.2,15-15
		c0.4-1.5,0.6-3.2,0.6-4.8C70.4,14.1,61.3,5,50,5c-11.3,0-20.4,9.1-20.4,20.4c0,1.7,0.2,3.3,0.6,4.8C37.6,32,43.4,37.8,45.2,45.2z"
		/>
	<path style="fill:#0D74F5;" d="M54.8,54.8c-1.5-0.4-3.2-0.6-4.8-0.6s-3.3,0.2-4.8,0.6c-1.8,7.4-7.6,13.2-15,15
		c-0.4,1.5-0.6,3.2-0.6,4.8C29.6,85.9,38.7,95,50,95c11.3,0,20.4-9.1,20.4-20.4c0-1.7-0.2-3.3-0.6-4.8C62.4,68,56.6,62.2,54.8,54.8z
		"/>
	<path style="fill:#4494F7;" d="M74.6,29.6c-1.7,0-3.3,0.2-4.8,0.6c-1.8,7.4-7.6,13.2-15,15c-0.4,1.5-0.6,3.2-0.6,4.8
		s0.2,3.3,0.6,4.8c7.4,1.8,13.2,7.6,15,15c1.5,0.4,3.2,0.6,4.8,0.6C85.9,70.4,95,61.3,95,50S85.9,29.6,74.6,29.6z"/>
	<path style="fill:#196DFA;" d="M54.8,45.2c7.4-1.8,13.2-7.6,15-15C62.4,32,56.6,37.8,54.8,45.2z"/>
	<path style="fill:#0246F2;" d="M54.8,54.8c1.8,7.4,7.6,13.2,15,15C68,62.4,62.2,56.6,54.8,54.8z"/>
	<path style="fill:#015CF5;" d="M45.2,54.8c0.4-1.5,0.6-3.2,0.6-4.8s-0.2-3.3-0.6-4.8c-7.4-1.8-13.2-7.6-15-15
		c-1.5-0.4-3.2-0.6-4.8-0.6C14.1,29.6,5,38.7,5,50s9.1,20.4,20.4,20.4c1.7,0,3.3-0.2,4.8-0.6C32,62.4,37.8,56.6,45.2,54.8z"/>
	<path style="fill:#0045FA;" d="M45.2,45.2c-1.8-7.4-7.6-13.2-15-15C32,37.6,37.8,43.4,45.2,45.2z"/>
	<path style="fill:#0928F2;" d="M45.2,54.8c-7.4,1.8-13.2,7.6-15,15C37.6,68,43.4,62.2,45.2,54.8z"/>
</g>
</svg>
